<svg xmlns="http://www.w3.org/2000/svg" viewBox="0 0 512 512">
  <rect width="512" height="512" rx="96" fill="#6366f1"/>
  <g transform="translate(96, 80)" fill="none" stroke="white" stroke-width="20" stroke-linecap="round" stroke-linejoin="round">
    <path d="M0 24h128a64 64 0 0 1 64 64v224a48 48 0 0 0-48-48H0z" fill="rgba(255,255,255,0.15)"/>
    <path d="M320 24H192a64 64 0 0 0-64 64v224a48 48 0 0 1 48-48h144z" fill="rgba(255,255,255,0.15)"/>
    <path d="M0 24h128a64 64 0 0 1 64 64v224a48 48 0 0 0-48-48H0z"/>
    <path d="M320 24H192a64 64 0 0 0-64 64v224a48 48 0 0 1 48-48h144z"/>
  </g>
</svg>
